<svg width="128" height="128" viewBox="0 0 128 128" fill="none" xmlns="http://www.w3.org/2000/svg">
<path d="M36.6329 16.5988L64 1.08717L91.3606 16.595L91.367 16.5988L118.484 32.5436L118.734 64L118.484 95.4564L91.3669 111.401L91.3606 111.405L64 126.913L36.6394 111.405L36.633 111.401L9.5159 95.4564L9.26584 64L9.5159 32.5436L36.6329 16.5988Z" fill="#FFEACF" stroke="#F26B3B" stroke-width="1.89163"/>
<path d="M54.8913 91.0979L64 85.9351L73.1087 91.0979L73.1108 91.0991L82.1362 96.4061L82.2195 106.876V106.878L82.1362 117.348L73.1108 122.655L73.1087 122.656L64 127.819L54.8913 122.656L54.8891 122.655L45.8637 117.348L45.7805 106.878V106.876L45.8637 96.4061L54.8903 91.0985L54.8913 91.0979Z" fill="#F26B3B" stroke="#F26B3B" stroke-width="0.315271"/>
<path d="M73.1087 36.9021L64 42.0649L54.8913 36.9021L54.8892 36.9009L45.8638 31.5939L45.7805 21.1242L45.7805 21.1217L45.8638 10.652L54.8892 5.34501L54.8913 5.34376L64 0.180986L73.1087 5.34376L73.1109 5.34501L82.1363 10.652L82.2195 21.1217L82.2195 21.1242L82.1363 31.5939L73.1097 36.9015L73.1087 36.9021Z" fill="#F26B3B" stroke="#F26B3B" stroke-width="0.315271"/>
<path d="M92.0933 69.9743L101.202 64.8116L110.311 69.9743L110.313 69.9756L119.338 75.2825L119.422 85.7523V85.7548L119.338 96.2245L110.313 101.531L110.311 101.533L101.202 106.695L92.0933 101.533L92.0912 101.531L83.0657 96.2245L82.9825 85.7548V85.7523L83.0657 75.2825L92.0923 69.975L92.0933 69.9743Z" fill="#F26B3B" stroke="#F26B3B" stroke-width="0.315271"/>
<path d="M35.9067 58.0252L26.798 63.1879L17.6893 58.0252L17.6872 58.0239L8.66173 52.717L8.57848 42.2472L8.57848 42.2447L8.66173 31.775L17.6871 26.4681L17.6893 26.4668L26.798 21.304L35.9067 26.4668L35.9088 26.4681L44.9343 31.775L45.0175 42.2447L45.0175 42.2472L44.9343 52.717L35.9077 58.0246L35.9067 58.0252Z" fill="#F26B3B" stroke="#F26B3B" stroke-width="0.315271"/>
<path d="M92.0933 26.7824L101.202 21.6197L110.311 26.7824L110.313 26.7837L119.338 32.0906L119.422 42.5604V42.5629L119.338 53.0326L110.313 58.3396L110.311 58.3408L101.202 63.5036L92.0933 58.3408L92.0912 58.3396L83.0657 53.0326L82.9825 42.5629V42.5604L83.0657 32.0907L92.0923 26.7831L92.0933 26.7824Z" fill="#F26B3B" stroke="#F26B3B" stroke-width="0.315271"/>
<path d="M35.9067 101.218L26.798 106.38L17.6893 101.218L17.6872 101.216L8.66173 95.9094L8.57848 85.4396L8.57848 85.4371L8.66173 74.9674L17.6871 69.6604L17.6893 69.6592L26.798 64.4964L35.9067 69.6592L35.9088 69.6604L44.9343 74.9674L45.0175 85.4371L45.0175 85.4396L44.9343 95.9093L35.9077 101.217L35.9067 101.218Z" fill="#F26B3B" stroke="#F26B3B" stroke-width="0.315271"/>
<line x1="64.1576" y1="6.89047e-09" x2="64.1576" y2="125.793" stroke="#F26B3B" stroke-width="0.315271"/>
<line x1="8.90499" y1="32.6507" x2="118.619" y2="94.4438" stroke="#F26B3B" stroke-width="0.315271"/>
<line x1="10.9559" y1="94.4444" x2="118.463" y2="32.6513" stroke="#F26B3B" stroke-width="0.315271"/>
</svg>
